<?xml version="1.0" encoding="UTF-8"?>
<svg width="24px" height="24px" viewBox="0 0 24 24" stroke-width="1.5" fill="none" xmlns="http://www.w3.org/2000/svg" color="#000000">
<path d="M20 8.5C20 6.01472 17.9853 4 15.5 4C13.0147 4 11 6.01472 11 8.5C11 10.9853 13.0147 13 15.5 13C17.9853 13 20 10.9853 20 8.5Z" stroke="#000000" stroke-width="1.5"/>
<path d="M14 8.5C14 7.67157 14.6716 7 15.5 7C16.3284 7 17 7.67157 17 8.5C17 9.32843 16.3284 10 15.5 10C14.6716 10 14 9.32843 14 8.5Z" fill="#000000" stroke="#000000" stroke-width="1.5"/>
<path d="M11 8.5C11 8.03534 11.0608 7.58665 11.1748 7.16048C10.5983 7.05572 9.99693 7 9.38197 7C5.71639 7 2.74731 9.96908 2.74731 13.6347C2.74731 14.7141 3.00615 15.7341 3.46178 16.6436L4.29771 18.2355C4.97571 19.5732 6.34131 20.4434 7.84519 20.4434H13.3856C15.4496 20.4434 17.1297 18.7633 17.1297 16.6993V16.1108" stroke="#000000" stroke-width="1.5" stroke-linecap="round" stroke-linejoin="round"/>
<path d="M11 13C11.5 13.5 12.5 14.5 14 14.5" stroke="#000000" stroke-width="1.5" stroke-linecap="round" stroke-linejoin="round"/>
</svg>